<?xml version="1.0" encoding="UTF-8" standalone="no"?>
<!-- Created with Inkscape (http://www.inkscape.org/) -->

<svg
   width="800"
   height="800"
   viewBox="0 0 800 800"
   version="1.1"
   id="svg1"
   inkscape:version="1.2.2 (732a01da63, 2022-12-09)"
   sodipodi:docname="1489_bet.svg"
   xml:space="preserve"
   xmlns:inkscape="http://www.inkscape.org/namespaces/inkscape"
   xmlns:sodipodi="http://sodipodi.sourceforge.net/DTD/sodipodi-0.dtd"
   xmlns="http://www.w3.org/2000/svg"
   xmlns:svg="http://www.w3.org/2000/svg"><sodipodi:namedview
     id="namedview1"
     pagecolor="#ffffff"
     bordercolor="#000000"
     borderopacity="0.25"
     inkscape:showpageshadow="2"
     inkscape:pageopacity="0.0"
     inkscape:pagecheckerboard="0"
     inkscape:deskcolor="#d1d1d1"
     inkscape:document-units="px"
     showgrid="true"
     inkscape:zoom="1.602893"
     inkscape:cx="-108.86566"
     inkscape:cy="289.47659"
     inkscape:window-width="3840"
     inkscape:window-height="2066"
     inkscape:window-x="5749"
     inkscape:window-y="-11"
     inkscape:window-maximized="1"
     inkscape:current-layer="layer1"
     showguides="false"><inkscape:grid
       id="grid1"
       units="px"
       originx="0"
       originy="0"
       spacingx="25"
       spacingy="25"
       empcolor="#0099e5"
       empopacity="0.30196078"
       color="#0099e5"
       opacity="0.14901961"
       empspacing="4"
       dotted="false"
       gridanglex="30"
       gridanglez="30"
       visible="true" /></sodipodi:namedview><defs
     id="defs1" /><g
     inkscape:label="Layer 1"
     inkscape:groupmode="layer"
     id="layer1"><path
       id="path1305"
       style="fill:#000000;fill-opacity:0.538336;stroke:none;stroke-width:1px;stroke-linecap:butt;stroke-linejoin:miter;stroke-opacity:1"
       d="m 0,200 v 100 h 125 c 49.9999,0 75,25.0001 75,75 v 50 c 0,49.9999 -25.0001,75 -75,75 H 0 v 100 h 125 c 89.97284,0 175,-75.0001 175,-175 V 375 C 300,275.0001 214.97284,200 125,200 Z" /><rect
       style="opacity:0.469388;fill:#000000;fill-opacity:0.538336;fill-rule:evenodd;stroke-width:2;stroke-linejoin:round;stroke-miterlimit:2.5;paint-order:stroke fill markers;stop-color:#000000"
       id="rect7837"
       width="400"
       height="100"
       x="0"
       y="500" /><path
       id="path1305-8"
       style="fill:#000000;fill-opacity:0.538336;stroke:none;stroke-width:1px;stroke-linecap:butt;stroke-linejoin:miter;stroke-opacity:1"
       d="m 0,200 v 100 h 125 c 49.99985,0 75,25.00015 75,75 v 50 c 0,49.99985 -25.00015,75 -75,75 H 0 V 600 H 125 400 V 500 H 282.71094 C 293.67417,477.5108 300,452.19121 300,425 V 375 C 300,275.0002 214.97275,200 125,200 Z" /></g></svg>
