<?xml version="1.0" encoding="UTF-8" standalone="no"?>
<!-- Created with Inkscape (http://www.inkscape.org/) -->

<svg
   width="800"
   height="800"
   viewBox="0 0 800 800"
   version="1.1"
   id="svg1"
   inkscape:version="1.2.2 (732a01da63, 2022-12-09)"
   sodipodi:docname="1505_samekh.svg"
   xml:space="preserve"
   xmlns:inkscape="http://www.inkscape.org/namespaces/inkscape"
   xmlns:sodipodi="http://sodipodi.sourceforge.net/DTD/sodipodi-0.dtd"
   xmlns="http://www.w3.org/2000/svg"
   xmlns:svg="http://www.w3.org/2000/svg"><sodipodi:namedview
     id="namedview1"
     pagecolor="#ffffff"
     bordercolor="#000000"
     borderopacity="0.25"
     inkscape:showpageshadow="2"
     inkscape:pageopacity="0.0"
     inkscape:pagecheckerboard="0"
     inkscape:deskcolor="#d1d1d1"
     inkscape:document-units="px"
     showgrid="true"
     inkscape:zoom="1.602893"
     inkscape:cx="6.5506556"
     inkscape:cy="389.2961"
     inkscape:window-width="3840"
     inkscape:window-height="2066"
     inkscape:window-x="5749"
     inkscape:window-y="-11"
     inkscape:window-maximized="1"
     inkscape:current-layer="layer1"
     showguides="false"
     inkscape:lockguides="true"><inkscape:grid
       id="grid1"
       units="px"
       originx="0"
       originy="0"
       spacingx="25"
       spacingy="25"
       empcolor="#0099e5"
       empopacity="0.30196078"
       color="#0099e5"
       opacity="0.14901961"
       empspacing="4"
       dotted="false"
       gridanglex="30"
       gridanglez="30"
       visible="true" /></sodipodi:namedview><defs
     id="defs1" /><g
     inkscape:label="Layer 1"
     inkscape:groupmode="layer"
     id="layer1"><path
       id="path1305"
       style="fill:#000000;fill-opacity:0.538336;stroke:none;stroke-width:1px;stroke-linecap:butt;stroke-linejoin:miter;stroke-opacity:1"
       d="M 175,200 C 85.02725,200 0,275.0002 0,375 v 50 c 0,99.9998 85.02725,175 175,175 16.66667,0 33.33333,0 50,0 89.97275,0 175,-75.0002 175,-175 v -50 c 0,-99.9998 -85.02725,-175 -175,-175 -16.66667,0 -33.33333,0 -50,0 z m 0,100 c 16.66667,0 33.33333,0 50,0 49.99985,0 75,25.00015 75,75 v 50 c 0,49.99985 -25.00015,75 -75,75 -16.66667,0 -33.33333,0 -50,0 -49.99985,0 -75,-25.00015 -75,-75 v -50 c 0,-49.99985 25.00015,-75 75,-75 z"
       sodipodi:nodetypes="cssccssccccssccssc" /></g></svg>
