<?xml version="1.0" encoding="UTF-8" standalone="no"?>
<!-- Created with Inkscape (http://www.inkscape.org/) -->

<svg
   width="1200"
   height="1200"
   viewBox="0 0 1200 1200"
   version="1.1"
   id="svg1"
   inkscape:version="1.3.2 (091e20e, 2023-11-25, custom)"
   sodipodi:docname="58012_city.svg"
   xml:space="preserve"
   xmlns:inkscape="http://www.inkscape.org/namespaces/inkscape"
   xmlns:sodipodi="http://sodipodi.sourceforge.net/DTD/sodipodi-0.dtd"
   xmlns="http://www.w3.org/2000/svg"
   xmlns:svg="http://www.w3.org/2000/svg"><sodipodi:namedview
     id="namedview1"
     pagecolor="#ffffff"
     bordercolor="#000000"
     borderopacity="0.25"
     inkscape:showpageshadow="2"
     inkscape:pageopacity="0.0"
     inkscape:pagecheckerboard="0"
     inkscape:deskcolor="#d1d1d1"
     inkscape:document-units="px"
     showgrid="true"
     inkscape:zoom="0.55583335"
     inkscape:cx="516.34181"
     inkscape:cy="819.49023"
     inkscape:window-width="2560"
     inkscape:window-height="1494"
     inkscape:window-x="-11"
     inkscape:window-y="-11"
     inkscape:window-maximized="1"
     inkscape:current-layer="layer1"
     showguides="false"><inkscape:grid
       id="grid1"
       units="px"
       originx="0"
       originy="0"
       spacingx="25"
       spacingy="25"
       empcolor="#0099e5"
       empopacity="0.30196078"
       color="#0099e5"
       opacity="0.14901961"
       empspacing="4"
       dotted="false"
       gridanglex="30"
       gridanglez="30"
       visible="true" /></sodipodi:namedview><defs
     id="defs1" /><g
     inkscape:label="Layer 1"
     inkscape:groupmode="layer"
     id="layer1"><path
       id="rect1"
       style="fill:#000000;fill-rule:evenodd;stroke:none;stroke-width:5;stroke-dasharray:none"
       d="M 800,800 V 925 H 900 V 800 Z M 699.08337,1000.2828 700,825 h 25 V 800 H 575 v 25 l 24.91786,-0.1365 -0.80033,175.4193 L 500,1000 V 550 L 474.10045,525 475,475 h 550.8996 l -1.7991,50 -25.00005,25 L 1000,1000 Z M 800,575 V 700 H 900 V 575 Z m -200,0 V 700 H 700 V 575 Z"
       sodipodi:nodetypes="cccccccccccccccccccccccccccccccc" /><path
       id="path5"
       style="fill:#000000;fill-rule:evenodd;stroke:none;stroke-width:5;stroke-dasharray:none"
       d="M 399.10045,875 H 425 l 1.11244,-75 H 400 l -0.89955,-125 h 25.44056 L 424.1554,600 H 400 l -0.89955,-125 h 22.80189 l -0.40709,-50 H 800 V 300 l 25,-25 V 200 H 75 v 75 l 25,25 V 500 H 75 v 50 h 25 v 450 H 200 V 875 h 100 v 125 H 400 Z M 200,275 H 300 V 400 H 200 Z m 400,0 H 700 V 400 H 600 Z m -199.95312,0.0469 h 100 v 125 h -100 z M 200,475 H 300 V 600 H 200 Z m 0,200 H 300 V 800 H 200 Z"
       sodipodi:nodetypes="cccccccccccccccccccccccccccccccccccccccccccccccccccccc" /></g></svg>
